<svg width="20" height="20" viewBox="0 0 20 20" fill="none" xmlns="http://www.w3.org/2000/svg">
<path d="M2.02833 18.0429L3.15083 13.945C2.45833 12.7458 2.09417 11.385 2.09458 9.99126C2.09667 5.63084 5.645 2.08334 10.0058 2.08334C12.1221 2.08418 14.1079 2.90793 15.6017 4.40251C17.095 5.89751 17.9175 7.88418 17.9167 9.99751C17.915 14.3579 14.3658 17.9058 10.0058 17.9058H10.0025C8.67875 17.9054 7.3775 17.5733 6.22208 16.9429L2.02833 18.0429Z" fill="white"/>
<path d="M2.02833 18.2513C1.97333 18.2513 1.92 18.2296 1.88042 18.1896C1.82833 18.1367 1.80792 18.0596 1.8275 17.9883L2.92708 13.9733C2.24542 12.7625 1.88583 11.3875 1.88667 9.99167C1.88833 5.51583 5.53042 1.875 10.0058 1.875C12.1767 1.87583 14.2162 2.72125 15.7492 4.25542C17.2821 5.79 18.1258 7.82917 18.125 9.9975C18.1233 14.4729 14.4808 18.1142 10.0058 18.1142C8.67708 18.1138 7.3625 17.7858 6.19583 17.1654L2.08125 18.2442C2.06375 18.2492 2.04625 18.2513 2.02833 18.2513Z" fill="white"/>
<path d="M10.0058 2.08332C12.1221 2.08416 14.1079 2.90791 15.6017 4.40249C17.095 5.89749 17.9175 7.88416 17.9167 9.99749C17.915 14.3579 14.3658 17.9058 10.0058 17.9058H10.0025C8.67875 17.9054 7.3775 17.5733 6.22208 16.9429L2.02833 18.0429L3.15083 13.945C2.45833 12.7458 2.09417 11.385 2.09458 9.99124C2.09667 5.63082 5.645 2.08332 10.0058 2.08332ZM10.0058 1.66666C5.41583 1.66666 1.68 5.40082 1.67792 9.99124C1.6775 11.3942 2.03167 12.7767 2.70333 14.0004L1.62625 17.9333C1.58708 18.0771 1.62708 18.2304 1.73208 18.3362C1.81125 18.4162 1.91833 18.46 2.02833 18.46C2.06375 18.46 2.09917 18.4554 2.13417 18.4462L6.17042 17.3879C7.34875 17.9996 8.66958 18.3225 10.0025 18.3229C14.5958 18.3229 18.3317 14.5883 18.3338 9.99791C18.3346 7.77332 17.4692 5.68166 15.8971 4.10832C14.3242 2.53457 12.2321 1.66749 10.0058 1.66666Z" fill="#CFD8DC"/>
<path d="M14.6567 5.34666C13.415 4.10416 11.7646 3.41958 10.0079 3.41916C6.38125 3.41916 3.43167 6.36749 3.43 9.99166C3.42958 11.2337 3.77708 12.4429 4.43542 13.49L4.59208 13.7387L3.9275 16.1642L6.41625 15.5117L6.65667 15.6542C7.66583 16.2533 8.82333 16.57 10.0033 16.5704H10.0058C13.63 16.5704 16.5796 13.6217 16.5808 9.99708C16.5812 8.24083 15.8983 6.58916 14.6567 5.34666Z" fill="#40C351"/>
<path fill-rule="evenodd" clip-rule="evenodd" d="M8.02833 6.68543C7.88042 6.35626 7.72458 6.3496 7.58333 6.34376C7.46792 6.33876 7.33625 6.33918 7.20458 6.33918C7.07292 6.33918 6.85875 6.38876 6.6775 6.58668C6.49625 6.7846 5.98542 7.26251 5.98542 8.23501C5.98542 9.20751 6.69375 10.1475 6.7925 10.2792C6.89125 10.4108 8.16 12.4704 10.1692 13.2629C11.8387 13.9213 12.1788 13.7904 12.5413 13.7575C12.9037 13.7246 13.7108 13.2796 13.8754 12.8179C14.04 12.3563 14.04 11.9608 13.9908 11.8783C13.9412 11.7958 13.8096 11.7467 13.6121 11.6475C13.4146 11.5483 12.4425 11.0704 12.2612 11.0046C12.08 10.9388 11.9483 10.9058 11.8162 11.1038C11.6846 11.3013 11.3058 11.7467 11.1904 11.8783C11.075 12.0104 10.9596 12.0271 10.7621 11.9279C10.5646 11.8288 9.92792 11.6204 9.1725 10.9471C8.585 10.4233 8.18833 9.77626 8.07292 9.57835C7.9575 9.38085 8.06042 9.27376 8.15958 9.17501C8.24833 9.08626 8.35708 8.94418 8.45625 8.82876C8.555 8.71335 8.58792 8.63085 8.65375 8.49918C8.71958 8.3671 8.68667 8.25168 8.63708 8.15293C8.58833 8.05376 8.20417 7.07626 8.02833 6.68543Z" fill="white"/>
</svg>
